<?xml version="1.0" encoding="UTF-8" standalone="no"?>
<svg
   xmlns:osb="http://www.openswatchbook.org/uri/2009/osb"
   xmlns:dc="http://purl.org/dc/elements/1.1/"
   xmlns:cc="http://creativecommons.org/ns#"
   xmlns:rdf="http://www.w3.org/1999/02/22-rdf-syntax-ns#"
   xmlns:svg="http://www.w3.org/2000/svg"
   xmlns="http://www.w3.org/2000/svg"
   xmlns:xlink="http://www.w3.org/1999/xlink"
   xmlns:sodipodi="http://sodipodi.sourceforge.net/DTD/sodipodi-0.dtd"
   xmlns:inkscape="http://www.inkscape.org/namespaces/inkscape"
   height="31.854017mm"
   width="93.481087mm"
   version="1.1"
   viewBox="0 0 353.31435 120.39313"
   id="svg3148"
   sodipodi:docname="cloudlogo-forum.svg"
   inkscape:version="0.92.3 (2405546, 2018-03-11)">
  <sodipodi:namedview
     pagecolor="#ffffff"
     bordercolor="#666666"
     borderopacity="1"
     objecttolerance="10"
     gridtolerance="10"
     guidetolerance="10"
     inkscape:pageopacity="0"
     inkscape:pageshadow="2"
     inkscape:window-width="1920"
     inkscape:window-height="1137"
     id="namedview290"
     showgrid="false"
     inkscape:zoom="1.9812386"
     inkscape:cx="275.38138"
     inkscape:cy="169.00322"
     inkscape:window-x="1912"
     inkscape:window-y="-8"
     inkscape:window-maximized="1"
     inkscape:current-layer="svg3148" />
  <title
     id="title3261">Stylized Basic Cloud
    </title>
  <defs
     id="defs3150">
    <linearGradient
       osb:paint="solid"
       id="linearGradient4653">
      <stop
         id="stop4651"
         offset="0"
         style="stop-color:#000000;stop-opacity:1;" />
    </linearGradient>
    <linearGradient
       osb:paint="solid"
       id="linearGradient4551">
      <stop
         id="stop4549"
         offset="0"
         style="stop-color:#000000;stop-opacity:1;" />
    </linearGradient>
    <linearGradient
       x1="271.01999"
       y1="-441.04999"
       x2="285.03"
       gradientUnits="userSpaceOnUse"
       y2="-431.97"
       id="linearGradient6712">
      <stop
         offset="0"
         stop-color="#fff"
         id="stop6472" />
      <stop
         offset="1"
         stop-opacity="0"
         stop-color="#fff"
         id="stop6474" />
    </linearGradient>
    <linearGradient
       x1="287.51999"
       y1="-439.75"
       x2="289.67999"
       gradientUnits="userSpaceOnUse"
       y2="-436.32001"
       id="linearGradient6714">
      <stop
         offset="0"
         stop-color="#fff"
         id="stop6499" />
      <stop
         offset="1"
         stop-opacity="0"
         stop-color="#fff"
         id="stop6501" />
    </linearGradient>
    <linearGradient
       x1="286.51001"
       y1="-441.29001"
       x2="289.85001"
       gradientUnits="userSpaceOnUse"
       y2="-436.14001"
       id="linearGradient6716">
      <stop
         offset="0"
         stop-color="#fff"
         id="stop6515" />
      <stop
         offset="1"
         stop-opacity="0"
         stop-color="#fff"
         id="stop6517" />
    </linearGradient>
    <linearGradient
       x1="285.94"
       y1="-439.94"
       x2="289.39001"
       gradientUnits="userSpaceOnUse"
       xlink:href="#linearGradient6538"
       y2="-436.44"
       id="linearGradient6718" />
    <linearGradient
       id="linearGradient6538">
      <stop
         offset="0"
         stop-color="#fff"
         id="stop6540" />
      <stop
         offset="1"
         stop-opacity="0"
         stop-color="#fff"
         id="stop6542" />
    </linearGradient>
    <linearGradient
       x1="275.94"
       y1="-437.10999"
       x2="279.98001"
       gradientUnits="userSpaceOnUse"
       y2="-431.92001"
       id="linearGradient6720">
      <stop
         offset="0"
         stop-color="#fff"
         id="stop6530" />
      <stop
         offset="1"
         stop-opacity="0"
         stop-color="#fff"
         id="stop6532" />
    </linearGradient>
    <linearGradient
       x1="286.67001"
       y1="-439.48001"
       x2="289.76999"
       gradientUnits="userSpaceOnUse"
       y2="-436.70999"
       id="linearGradient6722">
      <stop
         offset="0"
         stop-color="#fff"
         id="stop6551" />
      <stop
         offset="1"
         stop-opacity="0"
         stop-color="#fff"
         id="stop6553" />
    </linearGradient>
    <linearGradient
       x1="284.79999"
       y1="-441.23001"
       x2="288.89999"
       gradientUnits="userSpaceOnUse"
       xlink:href="#linearGradient6538"
       y2="-436.82999"
       id="linearGradient6724" />
  </defs>
  <metadata
     id="metadata47">
    <rdf:RDF>
      <cc:Work>
        <dc:format>image/svg+xml</dc:format>
        <dc:type
           rdf:resource="http://purl.org/dc/dcmitype/StillImage" />
        <cc:license
           rdf:resource="http://creativecommons.org/publicdomain/zero/1.0/" />
        <dc:publisher>
          <cc:Agent
             rdf:about="http://openclipart.org/">
            <dc:title>Openclipart</dc:title>
          </cc:Agent>
        </dc:publisher>
        <dc:title>Stylized Basic Cloud
    </dc:title>
        <dc:date>2013-06-30T13:11:03</dc:date>
        <dc:description>A simple stylized cloud to represent weather, cloud computing or the Internet.
                </dc:description>
        <dc:source>https://openclipart.org/detail/179894/stylized-basic-cloud-by-gr8dan-179894</dc:source>
        <dc:creator>
          <cc:Agent>
            <dc:title>GR8DAN</dc:title>
          </cc:Agent>
        </dc:creator>
        <dc:subject>
          <rdf:Bag>
            <rdf:li>basic</rdf:li>
            <rdf:li>cloud</rdf:li>
            <rdf:li>grey</rdf:li>
            <rdf:li>simple</rdf:li>
            <rdf:li>sky</rdf:li>
            <rdf:li>stylized</rdf:li>
            <rdf:li>weather</rdf:li>
          </rdf:Bag>
        </dc:subject>
      </cc:Work>
      <cc:License
         rdf:about="http://creativecommons.org/publicdomain/zero/1.0/">
        <cc:permits
           rdf:resource="http://creativecommons.org/ns#Reproduction" />
        <cc:permits
           rdf:resource="http://creativecommons.org/ns#Distribution" />
        <cc:permits
           rdf:resource="http://creativecommons.org/ns#DerivativeWorks" />
      </cc:License>
    </rdf:RDF>
  </metadata>
  <path
     id="path4591"
     d=""
     style="fill:#010000;fill-opacity:1;fill-rule:nonzero;stroke:#000000;stroke-width:0.125;stroke-opacity:1" />
  <g
     id="g945">
    <g
       id="layer1"
       transform="translate(57.856611,-443.49206)">
      <g
         id="g6668"
         transform="matrix(5.1724,0,0,5.1724,-1230.4,2772.5)">
        <path
           id="path6670"
           d="m 280.5,-445.5 c -2.2708,0 -4.1099,1.5503 -4.7188,3.625 -0.69323,-0.36383 -1.4445,-0.625 -2.2812,-0.625 -2.76,0 -5,2.24 -5,5 0,0.57893 0.16252,1.1077 0.34375,1.625 -1.3735,0.77074 -2.3438,2.189 -2.3438,3.875 0,2.484 2.016,4.5 4.5,4.5 h 19 c 2.484,0 4.5,-2.016 4.5,-4.5 0,-1.686 -0.97028,-3.1043 -2.3438,-3.875 0.18124,-0.51729 0.34375,-1.0461 0.34375,-1.625 0,-2.76 -2.24,-5 -5,-5 -0.83674,0 -1.588,0.26117 -2.2812,0.625 -0.60884,-2.0747 -2.4479,-3.625 -4.7188,-3.625 z"
           stroke-miterlimit="2"
           style="fill:#c4c5c2;stroke:#888a85;stroke-miterlimit:2" />
        <path
           id="path6672"
           d="m 280.5,-445 c -2.1897,0 -3.7236,1.3358 -4.3956,3.8435 -0.66846,-0.34362 -1.5476,-0.83335 -2.3544,-0.83335 -2.7165,0 -4.7551,1.9388 -4.7551,4.5455 0,0.54677 0.26721,1.3334 0.44196,1.822 -1.3244,0.72795 -2.4368,1.8905 -2.4368,3.3726 0,2.346 1.5462,4.2501 4.3393,4.2501 h 18.321 c 2.771,0 4.3393,-1.904 4.3393,-4.2501 0,-1.5924 -1.1124,-2.6667 -2.4368,-3.3946 0.17476,-0.48856 0.46407,-1.2532 0.46407,-1.7999 0,-2.6067 -2.1158,-4.5676 -4.7772,-4.5676 -0.80687,0 -1.6418,0.48974 -2.3103,0.83336 -0.65,-2.42 -2.25,-3.82 -4.44,-3.82 z"
           style="fill:url(#linearGradient6712)" />
        <g
           id="g6674">
          <path
             id="path6676"
             d="m 291.69,-437.59 c 0,1.8294 -1.4831,3.3125 -3.3125,3.3125 -1.8294,0 -3.3125,-1.4831 -3.3125,-3.3125 0,-1.8294 1.4831,-3.3125 3.3125,-3.3125 1.8294,0 3.3125,1.4831 3.3125,3.3125 z"
             style="fill:#c4c5c2"
             transform="matrix(1.0566,0,0,1.0566,-24.198,21.863)" />
          <path
             id="path6678"
             d="m 291.69,-437.59 c 0,1.8294 -1.4831,3.3125 -3.3125,3.3125 -1.8294,0 -3.3125,-1.4831 -3.3125,-3.3125 0,-1.8294 1.4831,-3.3125 3.3125,-3.3125 1.8294,0 3.3125,1.4831 3.3125,3.3125 z"
             style="fill:url(#linearGradient6714)"
             transform="matrix(1.0566,0,0,1.0566,-24.198,21.863)" />
        </g>
        <rect
           id="rect6680"
           height="9"
           width="20"
           y="-438"
           x="271"
           style="fill:#c4c5c2" />
        <path
           id="path6682"
           d="m 291.69,-437.59 c 0,1.8294 -1.4831,3.3125 -3.3125,3.3125 -1.8294,0 -3.3125,-1.4831 -3.3125,-3.3125 0,-1.8294 1.4831,-3.3125 3.3125,-3.3125 1.8294,0 3.3125,1.4831 3.3125,3.3125 z"
           style="fill:#c4c5c2"
           transform="matrix(0.90566,0,0,0.90566,9.8302,-35.689)" />
        <g
           id="g6684">
          <path
             id="path6686"
             d="m 291.69,-437.59 c 0,1.8294 -1.4831,3.3125 -3.3125,3.3125 -1.8294,0 -3.3125,-1.4831 -3.3125,-3.3125 0,-1.8294 1.4831,-3.3125 3.3125,-3.3125 1.8294,0 3.3125,1.4831 3.3125,3.3125 z"
             style="fill:#c4c5c2"
             transform="matrix(1.0566,0,0,1.0566,-17.198,24.863)" />
          <path
             id="path6688"
             d="m 291.69,-437.59 c 0,1.8294 -1.4831,3.3125 -3.3125,3.3125 -1.8294,0 -3.3125,-1.4831 -3.3125,-3.3125 0,-1.8294 1.4831,-3.3125 3.3125,-3.3125 1.8294,0 3.3125,1.4831 3.3125,3.3125 z"
             style="fill:url(#linearGradient6716)"
             transform="matrix(1.0566,0,0,1.0566,-17.198,24.863)" />
        </g>
        <g
           id="g6690">
          <path
             id="path6692"
             d="m 291.69,-437.59 c 0,1.8294 -1.4831,3.3125 -3.3125,3.3125 -1.8294,0 -3.3125,-1.4831 -3.3125,-3.3125 0,-1.8294 1.4831,-3.3125 3.3125,-3.3125 1.8294,0 3.3125,1.4831 3.3125,3.3125 z"
             style="fill:#c4c5c2"
             transform="matrix(1.0566,0,0,1.0566,-31.198,24.863)" />
          <path
             id="path6694"
             d="m 291.69,-437.59 c 0,1.8294 -1.4831,3.3125 -3.3125,3.3125 -1.8294,0 -3.3125,-1.4831 -3.3125,-3.3125 0,-1.8294 1.4831,-3.3125 3.3125,-3.3125 1.8294,0 3.3125,1.4831 3.3125,3.3125 z"
             style="fill:url(#linearGradient6718)"
             transform="matrix(1.0566,0,0,1.0566,-31.198,24.863)" />
        </g>
        <g
           id="g6696"
           transform="translate(-1)">
          <path
             id="path6698"
             d="m 280.47,-440.97 c -3.5794,0 -6.4688,2.9206 -6.4688,6.5 0,2.3707 1.3494,4.3378 3.25,5.4688 h 6.4688 c 1.9006,-1.131 3.25,-3.1293 3.25,-5.5 0,-3.5794 -2.9206,-6.4688 -6.5,-6.4688 z"
             style="fill:#c4c5c2" />
          <path
             id="path6700"
             d="m 280.5,-441 c -3.588,0 -6.5,2.912 -6.5,6.5 0,2.3764 1.3448,4.3663 3.25,5.5 h 6.5 c 1.9052,-1.1337 3.25,-3.1236 3.25,-5.5 0,-3.588 -2.912,-6.5 -6.5,-6.5 z"
             style="fill:url(#linearGradient6720)" />
        </g>
        <path
           id="path6702"
           d="m 291.69,-437.59 c 0,1.8294 -1.4831,3.3125 -3.3125,3.3125 -1.8294,0 -3.3125,-1.4831 -3.3125,-3.3125 0,-1.8294 1.4831,-3.3125 3.3125,-3.3125 1.8294,0 3.3125,1.4831 3.3125,3.3125 z"
           style="fill:url(#linearGradient6722)"
           transform="matrix(0.90566,0,0,0.90566,9.8303,-35.689)" />
        <path
           id="path6704"
           d="m 292.96,-437.33 c -0.002,2.6846 -3.2693,3.714 -3.2693,3.714 0,0 2.3487,-1.626 2.3368,-3.705 l 0.93241,-0.009 z"
           style="fill:#888a85;fill-rule:evenodd" />
        <g
           id="g6706"
           transform="matrix(1.1429,0,0,1.1429,-28.571,67)">
          <path
             id="path6708"
             d="m 291.69,-437.59 c 0,1.8294 -1.4831,3.3125 -3.3125,3.3125 -1.8294,0 -3.3125,-1.4831 -3.3125,-3.3125 0,-1.8294 1.4831,-3.3125 3.3125,-3.3125 1.8294,0 3.3125,1.4831 3.3125,3.3125 z"
             style="fill:#c4c5c2"
             transform="matrix(1.0566,0,0,1.0566,-31.198,24.863)" />
          <path
             id="path6710"
             d="m 291.69,-437.59 c 0,1.8294 -1.4831,3.3125 -3.3125,3.3125 -1.8294,0 -3.3125,-1.4831 -3.3125,-3.3125 0,-1.8294 1.4831,-3.3125 3.3125,-3.3125 1.8294,0 3.3125,1.4831 3.3125,3.3125 z"
             style="fill:url(#linearGradient6724)"
             transform="matrix(1.0566,0,0,1.0566,-31.198,24.863)" />
        </g>
      </g>
    </g>
    <text
       xml:space="preserve"
       style="font-style:normal;font-variant:normal;font-weight:300;font-stretch:normal;font-size:42.66666794px;line-height:1.25;font-family:Calibri;-inkscape-font-specification:'Calibri Light';letter-spacing:0px;word-spacing:0px;fill:#000000;fill-opacity:1;stroke:none"
       x="20.856611"
       y="107.34396"
       id="text54"><tspan
         id="tspan52"
         x="20.856611"
         y="107.34396"
         style="font-weight:bold;font-size:42.66666794px">Bioactives Cloud</tspan></text>
    <g
       id="g4669"
       transform="translate(-261.64339,-131.35685)">
      <g
         id="g4658">
        <path
           style="fill:#010000;fill-opacity:1;fill-rule:nonzero;stroke:#000000;stroke-width:0.30434775;stroke-opacity:1"
           d="m 364.53097,192.34593 c -3.21345,-1.53006 -3.06086,-7.46918 0.20945,-8.87608 4.73772,-2.30582 9.99482,-3.67139 14.28217,-6.81412 2.51764,-3.51959 -4.8531,-4.76315 -3.96331,-7.81278 1.66705,-2.19048 5.27035,-5.17645 4.20689,-7.8542 -4.03587,0.8135 -4.63737,-5.31601 -0.16097,-4.28427 4.04959,-0.29597 5.28836,4.48004 3.22728,7.30454 -0.71247,2.52097 -6.01517,5.62276 -1.14585,6.69314 2.19012,0.30166 0.64112,5.32251 2.49038,2.8225 2.37379,-2.84811 3.29177,2.1504 0.26806,2.10619 -2.30495,2.62894 -3.16564,6.2995 -4.94986,9.31862 -1.93662,4.78778 -6.81069,8.32795 -12.0789,7.90719 -0.81818,-0.003 -1.64755,-0.14073 -2.38534,-0.51073 z m 5.64832,-0.6063 c 3.5668,-0.93762 6.43677,-3.56477 7.89511,-6.93165 1.71604,-3.04034 2.95182,-6.35084 4.41778,-9.48439 -0.51449,-2.73762 -2.25492,-4.53488 -4.79091,-5.72269 1.26997,-3.42376 5.58181,-5.93459 4.66621,-10.0533 -0.528,-3.43613 -8.92365,-1.33137 -3.93699,0.45804 4.33433,0.30863 0.73185,5.52821 -0.80113,7.29092 -0.38204,1.00484 -3.102,2.0555 -1.28633,2.89472 2.3639,1.42134 5.87715,5.0887 2.89738,7.58454 -0.43841,0.24356 2.29311,0.73309 0.44375,2.28658 -2.28517,4.24687 -4.35717,9.68053 -9.46528,11.14457 -3.31188,1.79205 -9.132,-2.30362 -5.3844,-5.4872 0.79132,-0.98313 6.17447,-3.96915 2.19894,-2.364 -2.96509,0.68979 -5.12893,4.01996 -3.45608,6.85555 1.21398,2.44243 4.40594,2.26788 6.60195,1.52831 z m 1.73492,-2.17995 c 3.39148,-2.39993 5.16897,-6.38774 6.85289,-10.04407 -2.48045,0.31683 -6.01397,2.75498 -8.8127,4.00644 -2.0449,1.26141 -7.2728,3.22765 -4.58918,6.13368 1.90888,1.29967 4.6305,1.04322 6.54899,-0.0961 z m 13.36932,-15.8135 c -0.12773,-1.00752 -2.4362,2.0379 -0.32831,0.31668 z m -64.78911,-1.66288 c -4.21383,-0.9248 -3.29559,-7.99898 -8.26468,-6.9692 -4.33062,-1.28284 -1.17871,-7.40676 2.67555,-4.95877 3.66049,1.66705 5.0488,-3.26667 6.95193,-5.37337 0.99786,-2.12575 4.04861,-4.82734 4.13812,-6.4576 -2.48373,-0.8954 -7.81671,0.56215 -8.5509,-2.19093 2.11632,-0.95483 4.66988,-0.37027 6.98283,-0.53023 1.18378,-0.11848 2.60036,0.21968 3.64828,-0.16532 3.73652,-4.7695 7.84302,-9.44636 12.94586,-12.79124 2.1919,-2.11886 7.46473,-1.2652 6.55796,2.49741 -2.19168,4.92529 -6.65434,8.75127 -11.5739,10.83882 -2.83034,1.52662 -6.96732,1.22595 -8.44869,4.57047 -2.80115,4.34415 -6.06657,8.42552 -8.46965,13.00741 0.58788,1.94871 2.6923,8.23334 4.66611,4.07612 1.54174,-2.30054 4.07361,-5.31986 6.52031,-4.13075 0.0684,-4.41006 5.58851,-3.04049 5.81486,0.6643 1.60257,0.3711 5.00918,-5.94208 6.93553,-1.70926 0.0822,2.51499 2.90277,4.75626 3.74109,1.22564 1.61794,-5.28966 2.86783,-11.20763 7.10963,-15.1085 3.63402,-3.35832 5.82281,2.16337 4.46636,5.15127 -0.38658,2.49909 -3.31076,4.69258 -3.06694,6.93129 2.72853,-1.88713 6.00963,-1.29139 8.61722,-0.74189 2.84691,-1.89283 2.80317,2.97338 3.27881,3.99762 1.51553,-1.15749 3.43161,-3.73948 5.37393,-1.92543 1.4756,1.64533 0.64681,4.1233 0.86367,6.1804 0.19544,2.9414 -3.56212,-0.22042 -3.27867,-2.03283 -1.39952,0.0419 -5.93111,3.49626 -5.90829,-1.03799 -0.42622,-4.21097 -2.35001,4.52977 -4.56821,1.11277 -0.42102,-1.71117 1.82914,-4.67068 -1.13558,-3.6769 -4.51241,-0.61572 -3.55844,4.47624 -5.15206,6.98397 -1.48329,3.57527 -6.85725,2.75298 -5.99205,-1.43239 -0.77072,-2.47902 -2.65516,3.49598 -4.67551,0.94573 -1.40072,-2.11146 -2.53976,-6.58688 -4.29019,-1.95151 -1.91862,2.5359 -5.08863,1.40813 -5.22998,-1.58726 -0.85175,-1.76835 -0.0444,1.8759 -0.16788,2.51382 1.0551,3.33378 -4.575,4.18901 -3.58805,0.25361 -1.44576,-4.24274 -3.89647,2.25177 -5.61805,3.28376 -1.02629,0.70713 -2.12372,1.25482 -3.30877,0.53696 z m 2.39681,-1.02522 c 2.05176,-1.32946 4.35591,-7.55843 7.09184,-4.1184 0.0623,1.56746 1.1497,5.10763 2.14002,1.92319 -0.13534,-1.85046 -0.12655,-7.20462 2.16054,-3.3136 0.15422,3.44718 4.25323,1.65294 4.44917,-0.82707 3.52943,-4.32741 3.40422,7.56529 6.69667,2.51902 -2.22931,-0.38998 -2.4629,-3.97478 -4.31073,-5.36296 -2.32945,1.53386 -5.38406,5.82453 -6.80247,0.98015 -1.68781,-3.53314 -3.18631,0.8043 -4.08603,2.06525 -3.03985,-2.10297 -4.82709,2.35076 -6.46891,4.31227 -2.58357,3.11533 -4.71202,-2.8849 -5.42163,-4.89687 0.0515,-3.72478 3.52043,-6.33403 5.19805,-9.43834 0.94932,-1.62527 3.55536,-4.61663 3.41096,-5.61708 -3.22204,3.73092 -5.27529,8.40396 -8.83166,11.83163 -2.07244,0.92637 -8.42221,-2.22897 -6.7605,2.40661 2.23659,1.63625 6.01785,0.78079 6.38894,4.72079 0.76964,1.76899 3.09513,4.30379 5.14574,2.81541 z m -10.04998,-7.36093 c -1.34862,-2.65566 4.25807,0.12636 0.80449,0.57512 l -0.38399,-0.18255 z m 39.08716,6.00558 c 2.50464,-2.54404 1.05387,-8.5165 6.2704,-8.01722 3.89394,-1.54683 1.96297,3.09198 2.69338,4.27564 1.13394,-2.4061 4.6089,-5.41667 4.2114,-0.61271 1.05882,4.374 5.53359,-4.07561 5.98623,0.7939 0.31803,1.73405 2.08026,3.44846 1.65937,0.45069 0.74764,-3.38455 -2.08976,-5.8635 -4.44686,-2.51858 -3.95441,3.58175 -0.85834,-6.41931 -5.1442,-2.85328 -2.78757,-3.23326 -6.34575,1.1752 -9.04513,-0.10536 0.12256,-3.47072 3.71442,-5.82359 3.73301,-9.41015 0.60941,-3.06514 -2.51413,-4.65245 -4.22357,-1.6485 -4.0178,4.17794 -4.37966,10.26948 -6.69648,15.30506 -1.03604,1.5206 -1.0343,1.03309 0.40236,0.84126 1.27761,1.30032 1.00394,6.86204 4.02693,4.03365 l 0.27078,-0.24972 z m -2.63217,-0.20249 c -1.41415,-2.44949 -0.26209,-7.48275 3.08884,-7.27504 2.3255,1.56136 0.0186,7.63251 -2.71583,7.68177 z m 2.78698,-3.63922 c 1.2524,-1.60547 -0.0776,-4.50522 -1.52878,-1.8579 -1.90993,1.45347 -0.68459,7.70801 1.02093,3.23759 0.19039,-0.45176 0.35979,-0.91235 0.50785,-1.37969 z m -2.85492,-3.90668 c 1.0112,-3.88803 2.50664,-7.77583 4.75813,-11.12363 3.01917,-3.78682 3.86739,1.78554 2.19513,3.89833 -0.61022,3.51906 -4.27515,4.43912 -5.50015,7.27878 -0.32741,0.72398 -1.58692,1.23834 -1.45311,-0.0535 z m 3.13588,-3.11956 c 2.12672,-2.10636 3.97572,-5.07977 3.81165,-8.19428 -2.43394,0.44484 -3.85502,5.12186 -4.86487,7.66263 -0.8013,1.49139 0.39826,0.44232 1.05322,0.53165 z m -20.98316,-12.15415 c 6.62113,-1.80173 13.02892,-6.1627 15.76803,-12.62727 -1.61043,-2.34738 -4.3385,-2.1024 -6.31501,-0.1897 -3.44478,2.38743 -6.73756,5.5271 -9.14637,8.71625 3.97941,-3.23143 7.3627,-7.52709 12.23954,-9.43058 4.16873,0.39614 0.66748,5.48661 -1.47035,6.61643 -3.05616,3.24827 -7.08029,5.68313 -11.46775,6.56035 -2.079,0.17447 -0.16476,-3.19326 -2.03775,-0.59243 -0.64741,1.32808 -2.23885,0.58677 -3.40624,0.77502 -2.25997,0.0418 -4.54451,-0.12718 -6.78327,0.20735 2.69129,0.88426 6.13532,-0.21833 8.52007,1.25829 -0.38953,1.93608 3.1413,-1.93732 4.0991,-1.29371 z m 2.82605,-2.29891 c 4.18248,-1.83687 7.97938,-4.80323 10.60792,-8.54702 0.483,-3.95715 -4.99667,0.39658 -6.20283,1.7346 -2.61725,2.45523 -5.54293,4.67019 -7.71558,7.54252 0.34991,0.94721 2.49154,-0.66896 3.31049,-0.7301 z m 39.52749,11.64621 c -2.9554,-4.81007 7.32517,-5.57704 3.9393,-0.58873 -0.93079,0.8526 -2.97212,1.9529 -3.9393,0.58873 z m 2.54793,-0.68189 c 3.64845,-1.94433 -2.1983,-4.20418 -2.10489,-0.55865 -0.0666,1.37022 1.36275,1.01045 2.10489,0.55865 z m -32.78692,-2.65909 c -2.64448,-4.00887 4.89792,-4.87406 2.73457,-0.79116 -0.65418,0.65639 -1.84265,1.66928 -2.73457,0.79116 z m 1.93351,-1.17433 c 1.38019,-3.04741 -3.33154,-1.06058 -0.9194,0.6006 l 0.42395,-0.16115 0.49545,-0.43946 z"
           id="path3741" />
      </g>
      <path
         id="path4579"
         d="m 320.39852,171.12236 c -1.15153,-0.56233 -2.49279,-2.26956 -2.68106,-3.41261 -0.25383,-1.54106 -1.14555,-2.32404 -3.50644,-3.07888 -2.28651,-0.73106 -2.76779,-0.98994 -2.93064,-1.57636 -0.2099,-0.75582 -0.16031,-1.23524 0.16714,-1.61593 0.26879,-0.31248 0.39471,-0.35244 1.24604,-0.39543 0.52088,-0.0263 1.72588,0.0452 2.6778,0.15898 2.3294,0.27834 2.60937,0.21333 3.56397,-0.82758 1.10682,-1.20689 2.46868,-3.04867 4.1887,-5.6648 1.8233,-2.7732 3.56016,-5.14301 3.62557,-4.94679 0.0671,0.2014 -0.47614,1.09285 -1.91008,3.13429 -0.70023,0.99687 -1.42635,2.08066 -1.61361,2.40842 -0.18726,0.32776 -1.03393,1.51597 -1.88148,2.64046 -2.14895,2.85112 -2.8085,4.10603 -3.00737,5.72204 -0.0712,0.57884 -0.023,0.82088 0.36678,1.83896 1.17491,3.06909 2.39281,4.64101 3.59473,4.63965 0.81151,-8.8e-4 1.24802,-0.43977 3.16999,-3.18703 0.8462,-1.20957 1.37555,-1.77008 2.0387,-2.15871 0.7335,-0.42986 1.63803,-0.4529 2.30609,-0.0587 l 0.46377,0.27363 0.34195,-0.63009 c 1.19544,-2.20272 1.98508,-3.03786 2.60521,-2.75531 0.30901,0.1408 1.04924,1.07768 1.04924,1.328 0,0.39362 0.79297,1.69487 1.17775,1.93268 0.91159,0.56339 1.80985,0.20044 4.00999,-1.62031 0.82487,-0.68262 1.56598,-1.24283 1.64691,-1.2449 0.26297,-0.007 0.88967,0.88573 1.68657,2.4018 0.87405,1.66283 1.41515,2.36669 2.08267,2.70915 l 0.45327,0.23254 -0.51387,0.51387 c -1.00023,1.00023 -1.49817,0.67525 -2.61963,-1.70971 -0.81191,-1.72667 -1.09073,-2.12952 -1.62974,-2.35473 -0.35808,-0.14962 -0.47791,-0.1498 -0.82517,-0.001 -0.56646,0.24231 -1.02379,0.79221 -1.20972,1.45457 -0.29087,1.03618 -1.69915,2.125 -2.74849,2.125 -0.69603,0 -1.38554,-0.76209 -1.38554,-1.53139 0,-0.31163 -0.50456,-1.09591 -0.97139,-1.50991 -0.35157,-0.31178 -0.80186,-0.22344 -1.0026,0.1967 -0.25573,0.53524 -0.39949,1.65968 -0.40028,3.13083 -6.3e-4,1.11255 -0.0457,1.43678 -0.25727,1.85158 -0.19783,0.3878 -0.31896,0.49392 -0.52937,0.46377 -0.3993,-0.0572 -0.82531,-0.92755 -1.07504,-2.19638 -0.2049,-1.04103 -0.23847,-1.10815 -0.749,-1.49754 -0.39859,-0.30402 -0.66227,-0.40766 -1.03712,-0.40766 -1.06079,0 -1.71629,0.54902 -3.70846,3.10609 -1.4907,1.91339 -2.10745,2.39396 -3.07215,2.39381 -0.39968,-6e-5 -0.84317,-0.10184 -1.19732,-0.27479 z m -5.79538,-7.16836 c 0.29081,-0.29081 0.30265,-0.342 0.13741,-0.59375 -0.25587,-0.38982 -1.08196,-0.83352 -1.55638,-0.83595 -0.54739,-0.003 -0.73018,0.33955 -0.48922,0.91626 0.35674,0.8538 1.31104,1.11058 1.90819,0.51344 z"
         style="fill:#010000;fill-opacity:1;fill-rule:nonzero;stroke:#000000;stroke-width:0.125;stroke-opacity:1" />
      <path
         id="path4581"
         d="m 327.27352,148.14022 c 0,-0.18235 -0.15495,-0.32557 -0.53327,-0.49292 -0.90559,-0.40059 -1.63338,-0.50032 -4.48629,-0.61477 -1.51564,-0.0608 -2.81009,-0.16494 -2.87656,-0.23141 -0.17976,-0.17976 2.64665,-0.30577 5.91102,-0.26352 2.04642,0.0265 2.87281,-0.005 3.07771,-0.11836 0.15405,-0.085 0.51227,-0.46884 0.79604,-0.85297 0.53731,-0.72732 0.73025,-0.73687 0.73444,-0.0363 0.003,0.42925 0.43221,0.86734 0.85053,0.86723 0.18639,-5e-5 0.84513,-0.1395 1.46388,-0.30988 3.56335,-0.98125 6.37123,-2.60663 9.63922,-5.57981 0.55782,-0.5075 1.30154,-1.16353 1.65271,-1.45785 0.35116,-0.29432 0.90125,-0.90338 1.22243,-1.35346 1.43946,-2.01723 1.55421,-3.65811 0.30055,-4.29769 -0.69779,-0.35598 -1.19033,-0.31431 -2.24204,0.18971 -2.37077,1.13617 -3.9008,2.35418 -9.79162,7.7949 -1.03518,0.95608 -0.64426,0.3822 0.89098,-1.30798 1.68459,-1.85459 3.7789,-3.76058 5.79301,-5.27208 0.75614,-0.56744 1.55142,-1.18086 1.76728,-1.36314 1.54569,-1.30523 3.58922,-1.33273 4.96593,-0.0668 0.64455,0.59266 0.64904,0.60194 0.5038,1.04201 -0.0806,0.24422 -0.45403,0.96439 -0.82985,1.60038 -2.28525,3.8673 -6.14427,7.1639 -10.74438,9.1785 -1.58969,0.6962 -3.88786,1.46568 -4.116,1.37813 -0.26226,-0.10064 -1.02654,0.26351 -2.26822,1.0807 -1.19941,0.78938 -1.6813,0.92909 -1.6813,0.48746 z"
         style="fill:#010000;fill-opacity:1;fill-rule:nonzero;stroke:#000000;stroke-width:0.125;stroke-opacity:1" />
      <path
         id="path4583"
         d="m 349.50805,170.83402 c -0.40626,-0.22076 -0.70122,-0.84116 -1.27742,-2.68677 -0.58652,-1.8787 -0.70364,-2.04368 -1.37072,-1.93098 l -0.51217,0.0865 0.21759,-0.29653 c 0.60124,-0.81939 1.02667,-1.9619 2.94966,-7.92152 0.90074,-2.79152 1.59375,-4.42393 2.44523,-5.75986 0.52106,-0.81751 2.11651,-2.83532 2.58004,-3.26307 1.12619,-1.03923 2.73068,-0.50939 3.18447,1.05158 0.15936,0.54817 0.16905,0.84973 0.0569,1.7718 -0.19496,1.6034 -0.57183,2.52488 -1.94429,4.75387 -0.981,1.59325 -1.42589,2.54511 -1.64684,3.52347 -0.24223,1.07266 -0.19174,1.14328 0.86458,1.20897 0.67892,0.0422 1.04209,-0.0369 2.7809,-0.60617 2.84388,-0.93099 3.77588,-0.90164 4.88924,0.15394 l 0.38924,0.36904 0.60399,-0.38304 c 1.33007,-0.84351 1.73593,-0.41189 2.17741,2.31565 0.34264,2.11684 1.14098,2.21753 2.93241,0.36986 1.12246,-1.15769 2.06463,-1.35282 2.94701,-0.61035 0.79541,0.6693 0.9357,1.14722 0.9357,3.18761 0,1.00832 -0.042,1.87527 -0.0932,1.92656 -0.37335,0.37345 -1.2684,-0.9457 -1.48816,-2.1933 -0.22084,-1.25371 -0.73831,-1.64032 -1.59948,-1.195 -0.19577,0.10124 -0.88457,0.54248 -1.53067,0.98053 -0.6461,0.43806 -1.32532,0.82526 -1.50938,0.86044 -0.81509,0.15581 -1.34108,-0.59418 -1.34139,-1.91263 -3.8e-4,-1.37005 -0.28777,-1.863 -1.08573,-1.86194 -0.67861,8.8e-4 -1.97438,1.08932 -2.74051,2.30196 -0.1988,0.31467 -0.39949,0.57223 -0.44599,0.57235 -0.0465,1.3e-4 -0.10274,-0.81104 -0.125,-1.80258 -0.0379,-1.69074 -0.0587,-1.82219 -0.33357,-2.11443 -0.40638,-0.43204 -0.78324,-0.49547 -1.68253,-0.28319 -0.4259,0.10054 -1.15182,0.20823 -1.61314,0.23932 -1.27572,0.086 -2.12391,0.6735 -2.76249,1.91358 -0.11046,0.21449 -0.46239,1.25474 -0.78208,2.31166 -0.31969,1.05693 -0.73782,2.23144 -0.92917,2.61003 -0.39633,0.78415 -1.64862,2.04401 -2.30386,2.31779 -0.51559,0.21542 -0.42964,0.21596 -0.8366,-0.005 z m 1.42765,-1.32098 c 0.98131,-0.64999 1.84935,-2.055 2.26943,-3.67331 0.34571,-1.3318 0.20414,-2.50209 -0.3994,-3.30151 -0.30448,-0.4033 -0.34503,-0.41835 -0.93803,-0.34812 -1.28238,0.15188 -2.32014,1.12999 -2.87225,2.70715 -0.52145,1.48958 -0.32978,4.00927 0.36324,4.77504 0.30746,0.33975 0.91652,0.27824 1.57701,-0.15925 z m -0.68514,-6.93878 c 0.15546,-0.10889 0.45909,-0.5167 0.67474,-0.90625 0.26764,-0.48348 1.0382,-1.34301 2.42792,-2.70826 1.72331,-1.69297 2.09413,-2.12474 2.41548,-2.8125 0.20879,-0.44688 0.37967,-0.8765 0.37972,-0.95472 6e-5,-0.0782 0.18084,-0.52822 0.40175,-1 0.33814,-0.72217 0.40957,-1.03838 0.4518,-2.00008 0.0534,-1.2171 -0.0719,-1.81244 -0.49464,-2.34989 -0.50676,-0.64425 -1.48162,-0.33825 -2.39435,0.75157 -0.73785,0.881 -2.16294,3.52318 -3.04241,5.64079 -0.78677,1.89439 -1.92205,5.44162 -1.92205,6.00556 0,0.51756 0.58618,0.6951 1.10204,0.33378 z"
         style="fill:#010000;fill-opacity:1;fill-rule:nonzero;stroke:#000000;stroke-width:0.125;stroke-opacity:1" />
      <path
         id="path4585"
         d="m 366.07136,192.02863 c -1.54798,-0.36955 -2.73597,-1.72302 -2.98616,-3.40211 -0.22331,-1.49867 0.70722,-3.39037 2.16449,-4.40026 0.50458,-0.34967 2.72927,-1.2397 2.93081,-1.17252 0.0602,0.0201 -0.4989,0.45698 -1.24249,0.97091 -2.89319,1.99961 -3.6832,3.13429 -3.24108,4.65512 0.22754,0.78269 0.83753,1.53801 1.6773,2.07689 1.62284,1.04137 3.35635,1.16293 5.29932,0.37158 1.64632,-0.67052 2.42631,-1.18474 3.66848,-2.41849 1.39781,-1.38835 2.38337,-2.85815 4.06512,-6.0625 0.7036,-1.34063 1.4395,-2.62227 1.63533,-2.8481 0.55729,-0.64268 0.45135,-1.1681 -0.3333,-1.65304 l -0.4425,-0.27348 0.42583,-0.47136 c 0.86912,-0.962 0.93974,-2.35837 0.19041,-3.76452 -0.51867,-0.97329 -2.01272,-2.52729 -3.10501,-3.22959 -0.7822,-0.50293 -0.99846,-0.70366 -1.00247,-0.93052 -10e-4,-0.0594 0.41172,-0.53758 0.91727,-1.0625 2.81826,-2.9262 4.37064,-6.1104 3.65431,-7.49562 -0.21663,-0.41891 -0.9997,-0.89547 -1.47477,-0.89749 -0.38634,-0.002 -1.48168,-0.52699 -1.76624,-0.84711 -0.53922,-0.60659 0.33388,-1.23181 1.90399,-1.36344 1.16004,-0.0973 2.04656,0.12933 2.65434,0.67843 0.5621,0.50782 0.73252,1.01748 0.73349,2.19353 10e-4,1.5679 -0.51641,2.64933 -2.61608,5.46481 -0.69215,0.92812 -1.46313,2.07627 -1.71327,2.55143 -0.51636,0.98088 -0.58295,0.83628 0.72466,1.57357 1.22708,0.69188 2.36343,1.89667 2.95968,3.13796 0.8226,1.71254 0.85706,1.47662 -0.74672,5.11204 -1.55918,3.5343 -3.35043,7.12737 -4.17885,8.38239 -0.70515,1.06825 -2.50928,2.79284 -3.61925,3.45969 -2.26408,1.3602 -5.37326,2.08528 -7.13664,1.6643 z"
         style="fill:#010000;fill-opacity:1;fill-rule:nonzero;stroke:#000000;stroke-width:0.125;stroke-opacity:1" />
      <path
         id="path4587"
         d="m 374.39878,155.46006 c -0.10104,-0.12175 -0.13637,-0.44955 -0.10107,-0.93763 0.0444,-0.61355 0.11952,-0.81853 0.41194,-1.12375 0.60424,-0.63069 1.59605,-0.64876 2.31687,-0.0422 0.46221,0.38892 0.47514,0.77405 0.0432,1.28735 -0.67518,0.80241 -2.27635,1.29174 -2.67096,0.81626 z"
         style="fill:#010000;fill-opacity:1;fill-rule:nonzero;stroke:#000000;stroke-width:0.125;stroke-opacity:1" />
      <path
         id="path4589"
         d="m 365.49033,192.63624 c -1.95759,-0.4612 -3.2168,-2.26989 -3.21227,-4.61399 0.002,-1.00861 0.16634,-1.74245 0.57286,-2.55722 0.72226,-1.44762 1.37513,-1.83422 6.8601,-4.06234 5.35089,-2.17364 9.03714,-4.13844 9.61245,-5.12349 0.63092,-1.0803 0.15387,-2.28618 -1.40182,-3.54346 -2.25436,-1.82192 -3.05219,-2.83264 -2.85529,-3.61715 0.04,-0.15922 0.70161,-1.01947 1.47033,-1.91167 1.44791,-1.68048 2.30851,-2.88922 2.66454,-3.7424 0.26971,-0.64632 0.38064,-1.79072 0.21486,-2.21659 -0.11702,-0.30064 -0.1787,-0.3291 -0.57409,-0.26494 -1.1218,0.18205 -2.37389,-0.63179 -2.68576,-1.74569 -0.21189,-0.75677 -0.0891,-1.36361 0.38504,-1.90368 0.55268,-0.62946 1.04426,-0.73609 2.70158,-0.58596 1.60552,0.14543 2.40742,0.48768 3.05325,1.30311 0.77117,0.97368 1.13228,2.58054 0.86618,3.85437 -0.22267,1.066 -1.32502,3.0966 -2.48843,4.58386 -1.22329,1.56382 -1.52534,2.10349 -1.52534,2.72538 0,0.65129 0.49571,1.09655 1.58042,1.41959 1.24562,0.37096 1.54675,0.78307 1.74515,2.38828 0.1749,1.41519 0.40432,1.55921 1.11064,0.69724 0.81329,-0.99252 1.52077,-1.24452 1.96249,-0.69902 0.30156,0.37241 0.29251,1.20415 -0.0186,1.71446 -0.27237,0.44671 -0.83456,0.78732 -1.29952,0.78732 -0.59127,0 -1.87056,2.01962 -3.20674,5.0625 -0.92518,2.10689 -2.74433,5.74702 -3.32844,6.66019 -0.5657,0.88439 -2.30528,2.68201 -3.23286,3.34073 -1.14759,0.81495 -2.73369,1.55598 -4.03933,1.88719 -0.96952,0.24594 -1.47304,0.29715 -2.82044,0.28683 -0.90213,-0.007 -1.85204,-0.0625 -2.11092,-0.12345 z m 4.59569,-0.80432 c 2.89262,-0.85489 5.27932,-2.52776 6.77282,-4.74717 0.67836,-1.00807 2.46968,-4.47676 3.40517,-6.59375 0.41773,-0.94532 1.10016,-2.48876 1.51651,-3.42989 0.88083,-1.99108 0.88295,-2.06671 0.10301,-3.67954 -0.61654,-1.27491 -1.88086,-2.58883 -3.17251,-3.29696 -0.48125,-0.26384 -0.89572,-0.49559 -0.92104,-0.515 -0.12372,-0.0948 1.02062,-1.90914 2.162,-3.42781 2.16595,-2.88192 2.63948,-3.95361 2.54009,-5.74867 -0.0692,-1.24931 -0.28318,-1.74498 -0.94078,-2.17909 -0.95092,-0.62773 -2.79038,-0.72438 -3.95786,-0.20795 -1.04845,0.46378 -1.03788,1.14981 0.026,1.68892 0.33297,0.16873 0.82728,0.34702 1.09849,0.39621 1.55966,0.28289 2.02695,1.2602 1.43089,2.99267 -0.54095,1.57229 -2.14948,3.92621 -3.6413,5.32867 -1.13194,1.06414 -1.12268,1.19579 0.14536,2.06643 1.22739,0.84273 2.73273,2.42396 3.18217,3.34259 0.65322,1.33512 0.58585,2.45863 -0.20761,3.46244 -0.43417,0.54926 -0.48184,0.66415 -0.31443,0.75784 0.45982,0.25733 0.96051,0.76918 0.96051,0.98191 0,0.12611 -0.13367,0.3883 -0.29704,0.58264 -0.16338,0.19433 -0.87288,1.45021 -1.57666,2.79084 -2.97904,5.67468 -4.6527,7.47641 -8.11897,8.74026 -2.13694,0.77916 -4.1675,0.35408 -5.66134,-1.18518 -1.29019,-1.3294 -1.19311,-2.89774 0.26068,-4.21115 0.27252,-0.2462 1.14281,-0.90507 1.93397,-1.46415 1.61403,-1.14056 1.87386,-1.37978 1.49859,-1.37978 -0.34377,0 -2.25619,0.71122 -2.86421,1.06519 -0.80097,0.4663 -1.86333,1.69566 -2.18133,2.52423 -0.40615,1.05826 -0.39363,2.37309 0.0314,3.30155 0.56964,1.24425 1.49327,2.05281 2.69169,2.35634 0.82552,0.20909 2.85438,0.0542 4.09569,-0.31264 z m 0.10084,-1.49613 c 1.91576,-0.49899 3.64264,-1.99515 5.4837,-4.75104 0.83895,-1.25584 3.18672,-5.89541 3.05163,-6.03051 -0.1852,-0.18519 -1.84011,0.38781 -3.51117,1.21572 -1.80185,0.89272 -4.30719,2.19271 -6.5,3.37278 -2.58923,1.39341 -3.80141,2.4099 -4.07194,3.41458 -0.26978,1.0019 0.29474,2.03078 1.37697,2.50963 0.38224,0.16912 0.80747,0.33423 0.94497,0.3669 0.57629,0.13692 2.55456,0.0768 3.22584,-0.0981 z m 14.56791,-16.06433 c 0.54702,-0.39626 0.67973,-0.74921 0.2817,-0.74921 -0.23464,0 -1.01295,0.7717 -1.01295,1.00435 0,0.20327 0.18991,0.13701 0.73125,-0.25514 z"
         style="fill:#010000;fill-opacity:1;fill-rule:nonzero;stroke:#000000;stroke-width:0.125;stroke-opacity:1" />
      <path
         id="path4593"
         d="m 384.09267,174.53758 c 0,-0.0927 0.14914,-0.29695 0.39806,-0.54519 0.18482,-0.18431 0.34194,-0.31173 0.45483,-0.36884 0.0546,-0.0276 0.0753,-0.0318 0.13629,-0.0274 0.13455,0.01 0.15071,0.0714 0.0561,0.21428 -0.1014,0.15319 -0.31272,0.33595 -0.64828,0.56069 -0.17115,0.11463 -0.29583,0.1822 -0.35977,0.19499 -0.0352,0.007 -0.0373,0.005 -0.0373,-0.0286 z"
         style="fill:#010000;fill-opacity:1;fill-rule:nonzero;stroke:#000000;stroke-width:0.01191194;stroke-opacity:1" />
    </g>
    <text
       xml:space="preserve"
       style="font-style:normal;font-weight:normal;font-size:12.66915798px;line-height:1.25;font-family:sans-serif;letter-spacing:0px;word-spacing:0px;fill:#000096;fill-opacity:1;stroke:none;stroke-width:0.86380619"
       x="-0.56912231"
       y="54.736881"
       id="text4679"
       transform="scale(0.99070825,1.0093789)"><tspan
         id="tspan4677"
         x="-0.56912231"
         y="54.736881"
         style="stroke-width:0.86380619"><tspan
           style="line-height:1.08000004;fill:#000096;fill-opacity:1;stroke-width:0.86380619"
           id="tspan4683">Wirkstoffe und</tspan></tspan><tspan
         x="-0.56912231"
         y="70.573318"
         id="tspan4681"
         style="line-height:1.08000004;fill:#000096;fill-opacity:1;stroke-width:0.86380619">Biotechnologie</tspan></text>
    <path
       style="fill:#000000;fill-opacity:1;stroke:#000000;stroke-width:0.04222861;stroke-opacity:1"
       d="m 82.624971,20.683847 c -0.563974,-0.486663 -0.602377,-1.065418 -0.102324,-1.542024 0.327617,-0.312255 0.875064,-0.492372 1.233839,-0.405947 0.291756,0.07027 0.361573,0.52189 0.171419,1.108827 -0.103558,0.31965 -0.13174,0.362071 -0.406787,0.612351 -0.186649,0.16984 -0.368314,0.293808 -0.49311,0.336494 l -0.197588,0.06759 z"
       id="path71" />
  </g>
  <text
     xml:space="preserve"
     style="font-style:normal;font-variant:normal;font-weight:bold;font-stretch:normal;font-size:40px;line-height:1.25;font-family:Calibri;-inkscape-font-specification:'Calibri Bold';letter-spacing:0px;word-spacing:0px;fill:#000000;fill-opacity:1;stroke:none"
     x="143.34467"
     y="49.730267"
     id="text4141"><tspan
       sodipodi:role="line"
       id="tspan4139"
       x="143.34467"
       y="49.730267">Forum</tspan></text>
</svg>
