<?xml version="1.0" encoding="UTF-8" standalone="no"?>
<svg
        xmlns:dc="http://purl.org/dc/elements/1.1/"
        xmlns:cc="http://creativecommons.org/ns#"
        xmlns:rdf="http://www.w3.org/1999/02/22-rdf-syntax-ns#"
        xmlns="http://www.w3.org/2000/svg"
        xmlns:xlink="http://www.w3.org/1999/xlink"
        xmlns:sodipodi="http://sodipodi.sourceforge.net/DTD/sodipodi-0.dtd"
        xmlns:inkscape="http://www.inkscape.org/namespaces/inkscape"
        id="svg3148"
        viewBox="0 0 123.75782 90.531092"
        version="1.1"
        sodipodi:docname="Cloud.svg"
        width="32.744255mm"
        height="23.953018mm"
        inkscape:version="0.92.3 (2405546, 2018-03-11)">
    <sodipodi:namedview
            pagecolor="#ffffff"
            bordercolor="#666666"
            borderopacity="1"
            objecttolerance="10"
            gridtolerance="10"
            guidetolerance="10"
            inkscape:pageopacity="0"
            inkscape:pageshadow="2"
            inkscape:window-width="1702"
            inkscape:window-height="998"
            id="namedview50"
            showgrid="false"
            inkscape:zoom="2"
            inkscape:cx="-49.926579"
            inkscape:cy="56.260485"
            inkscape:window-x="1942"
            inkscape:window-y="79"
            inkscape:window-maximized="0"
            inkscape:current-layer="svg3148"
            units="mm"
            fit-margin-top="0"
            fit-margin-left="0"
            fit-margin-right="0"
            fit-margin-bottom="0"/>
    <title
            id="title3261">Stylized Basic Cloud
    </title>
    <defs
            id="defs3150">
        <linearGradient
                id="linearGradient6712"
                y2="-431.97"
                gradientUnits="userSpaceOnUse"
                x2="285.03"
                y1="-441.04999"
                x1="271.01999">
            <stop
                    id="stop6472"
                    stop-color="#fff"
                    offset="0"/>
            <stop
                    id="stop6474"
                    stop-color="#fff"
                    stop-opacity="0"
                    offset="1"/>
        </linearGradient>
        <linearGradient
                id="linearGradient6714"
                y2="-436.32001"
                gradientUnits="userSpaceOnUse"
                x2="289.67999"
                y1="-439.75"
                x1="287.51999">
            <stop
                    id="stop6499"
                    stop-color="#fff"
                    offset="0"/>
            <stop
                    id="stop6501"
                    stop-color="#fff"
                    stop-opacity="0"
                    offset="1"/>
        </linearGradient>
        <linearGradient
                id="linearGradient6716"
                y2="-436.14001"
                gradientUnits="userSpaceOnUse"
                x2="289.85001"
                y1="-441.29001"
                x1="286.51001">
            <stop
                    id="stop6515"
                    stop-color="#fff"
                    offset="0"/>
            <stop
                    id="stop6517"
                    stop-color="#fff"
                    stop-opacity="0"
                    offset="1"/>
        </linearGradient>
        <linearGradient
                id="linearGradient6718"
                y2="-436.44"
                xlink:href="#linearGradient6538"
                gradientUnits="userSpaceOnUse"
                x2="289.39001"
                y1="-439.94"
                x1="285.94"/>
        <linearGradient
                id="linearGradient6538">
            <stop
                    id="stop6540"
                    stop-color="#fff"
                    offset="0"/>
            <stop
                    id="stop6542"
                    stop-color="#fff"
                    stop-opacity="0"
                    offset="1"/>
        </linearGradient>
        <linearGradient
                id="linearGradient6720"
                y2="-431.92001"
                gradientUnits="userSpaceOnUse"
                x2="279.98001"
                y1="-437.10999"
                x1="275.94">
            <stop
                    id="stop6530"
                    stop-color="#fff"
                    offset="0"/>
            <stop
                    id="stop6532"
                    stop-color="#fff"
                    stop-opacity="0"
                    offset="1"/>
        </linearGradient>
        <linearGradient
                id="linearGradient6722"
                y2="-436.70999"
                gradientUnits="userSpaceOnUse"
                x2="289.76999"
                y1="-439.48001"
                x1="286.67001">
            <stop
                    id="stop6551"
                    stop-color="#fff"
                    offset="0"/>
            <stop
                    id="stop6553"
                    stop-color="#fff"
                    stop-opacity="0"
                    offset="1"/>
        </linearGradient>
        <linearGradient
                id="linearGradient6724"
                y2="-436.82999"
                xlink:href="#linearGradient6538"
                gradientUnits="userSpaceOnUse"
                x2="288.89999"
                y1="-441.23001"
                x1="284.79999"/>
    </defs>
    <g
            id="layer1"
            transform="matrix(0.82505425,0,0,0.92119602,-120.01086,-428.91771)">
        <g
                id="g6668"
                transform="matrix(5.1724,0,0,5.1724,-1230.4,2772.5)">
            <path
                    id="path6670"
                    d="m 280.5,-445.5 c -2.2708,0 -4.1099,1.5503 -4.7188,3.625 -0.69323,-0.36383 -1.4445,-0.625 -2.2812,-0.625 -2.76,0 -5,2.24 -5,5 0,0.57893 0.16252,1.1077 0.34375,1.625 -1.3735,0.77074 -2.3438,2.189 -2.3438,3.875 0,2.484 2.016,4.5 4.5,4.5 h 19 c 2.484,0 4.5,-2.016 4.5,-4.5 0,-1.686 -0.97028,-3.1043 -2.3438,-3.875 0.18124,-0.51729 0.34375,-1.0461 0.34375,-1.625 0,-2.76 -2.24,-5 -5,-5 -0.83674,0 -1.588,0.26117 -2.2812,0.625 -0.60884,-2.0747 -2.4479,-3.625 -4.7188,-3.625 z"
                    stroke-miterlimit="2"
                    inkscape:connector-curvature="0"
                    style="fill:#c4c5c2;stroke:#888a85;stroke-miterlimit:2"/>
            <path
                    id="path6672"
                    d="m 280.5,-445 c -2.1897,0 -3.7236,1.3358 -4.3956,3.8435 -0.66846,-0.34362 -1.5476,-0.83335 -2.3544,-0.83335 -2.7165,0 -4.7551,1.9388 -4.7551,4.5455 0,0.54677 0.26721,1.3334 0.44196,1.822 -1.3244,0.72795 -2.4368,1.8905 -2.4368,3.3726 0,2.346 1.5462,4.2501 4.3393,4.2501 h 18.321 c 2.771,0 4.3393,-1.904 4.3393,-4.2501 0,-1.5924 -1.1124,-2.6667 -2.4368,-3.3946 0.17476,-0.48856 0.46407,-1.2532 0.46407,-1.7999 0,-2.6067 -2.1158,-4.5676 -4.7772,-4.5676 -0.80687,0 -1.6418,0.48974 -2.3103,0.83336 -0.65,-2.42 -2.25,-3.82 -4.44,-3.82 z"
                    inkscape:connector-curvature="0"
                    style="fill:url(#linearGradient6712)"/>
            <g
                    id="g6674">
                <path
                        id="path6676"
                        d="m 291.69,-437.59 c 0,1.8294 -1.4831,3.3125 -3.3125,3.3125 -1.8294,0 -3.3125,-1.4831 -3.3125,-3.3125 0,-1.8294 1.4831,-3.3125 3.3125,-3.3125 1.8294,0 3.3125,1.4831 3.3125,3.3125 z"
                        transform="matrix(1.0566,0,0,1.0566,-24.198,21.863)"
                        inkscape:connector-curvature="0"
                        style="fill:#c4c5c2"/>
                <path
                        id="path6678"
                        d="m 291.69,-437.59 c 0,1.8294 -1.4831,3.3125 -3.3125,3.3125 -1.8294,0 -3.3125,-1.4831 -3.3125,-3.3125 0,-1.8294 1.4831,-3.3125 3.3125,-3.3125 1.8294,0 3.3125,1.4831 3.3125,3.3125 z"
                        transform="matrix(1.0566,0,0,1.0566,-24.198,21.863)"
                        inkscape:connector-curvature="0"
                        style="fill:url(#linearGradient6714)"/>
            </g>
            <rect
                    id="rect6680"
                    height="9"
                    width="20"
                    y="-438"
                    x="271"
                    style="fill:#c4c5c2"/>
            <path
                    id="path6682"
                    d="m 291.69,-437.59 c 0,1.8294 -1.4831,3.3125 -3.3125,3.3125 -1.8294,0 -3.3125,-1.4831 -3.3125,-3.3125 0,-1.8294 1.4831,-3.3125 3.3125,-3.3125 1.8294,0 3.3125,1.4831 3.3125,3.3125 z"
                    transform="matrix(0.90566,0,0,0.90566,9.8302,-35.689)"
                    inkscape:connector-curvature="0"
                    style="fill:#c4c5c2"/>
            <g
                    id="g6684">
                <path
                        id="path6686"
                        d="m 291.69,-437.59 c 0,1.8294 -1.4831,3.3125 -3.3125,3.3125 -1.8294,0 -3.3125,-1.4831 -3.3125,-3.3125 0,-1.8294 1.4831,-3.3125 3.3125,-3.3125 1.8294,0 3.3125,1.4831 3.3125,3.3125 z"
                        transform="matrix(1.0566,0,0,1.0566,-17.198,24.863)"
                        inkscape:connector-curvature="0"
                        style="fill:#c4c5c2"/>
                <path
                        id="path6688"
                        d="m 291.69,-437.59 c 0,1.8294 -1.4831,3.3125 -3.3125,3.3125 -1.8294,0 -3.3125,-1.4831 -3.3125,-3.3125 0,-1.8294 1.4831,-3.3125 3.3125,-3.3125 1.8294,0 3.3125,1.4831 3.3125,3.3125 z"
                        transform="matrix(1.0566,0,0,1.0566,-17.198,24.863)"
                        inkscape:connector-curvature="0"
                        style="fill:url(#linearGradient6716)"/>
            </g>
            <g
                    id="g6690">
                <path
                        id="path6692"
                        d="m 291.69,-437.59 c 0,1.8294 -1.4831,3.3125 -3.3125,3.3125 -1.8294,0 -3.3125,-1.4831 -3.3125,-3.3125 0,-1.8294 1.4831,-3.3125 3.3125,-3.3125 1.8294,0 3.3125,1.4831 3.3125,3.3125 z"
                        transform="matrix(1.0566,0,0,1.0566,-31.198,24.863)"
                        inkscape:connector-curvature="0"
                        style="fill:#c4c5c2"/>
                <path
                        id="path6694"
                        d="m 291.69,-437.59 c 0,1.8294 -1.4831,3.3125 -3.3125,3.3125 -1.8294,0 -3.3125,-1.4831 -3.3125,-3.3125 0,-1.8294 1.4831,-3.3125 3.3125,-3.3125 1.8294,0 3.3125,1.4831 3.3125,3.3125 z"
                        transform="matrix(1.0566,0,0,1.0566,-31.198,24.863)"
                        inkscape:connector-curvature="0"
                        style="fill:url(#linearGradient6718)"/>
            </g>
            <g
                    id="g6696"
                    transform="translate(-1)">
                <path
                        id="path6698"
                        d="m 280.47,-440.97 c -3.5794,0 -6.4688,2.9206 -6.4688,6.5 0,2.3707 1.3494,4.3378 3.25,5.4688 h 6.4688 c 1.9006,-1.131 3.25,-3.1293 3.25,-5.5 0,-3.5794 -2.9206,-6.4688 -6.5,-6.4688 z"
                        inkscape:connector-curvature="0"
                        style="fill:#c4c5c2"/>
                <path
                        id="path6700"
                        d="m 280.5,-441 c -3.588,0 -6.5,2.912 -6.5,6.5 0,2.3764 1.3448,4.3663 3.25,5.5 h 6.5 c 1.9052,-1.1337 3.25,-3.1236 3.25,-5.5 0,-3.588 -2.912,-6.5 -6.5,-6.5 z"
                        inkscape:connector-curvature="0"
                        style="fill:url(#linearGradient6720)"/>
            </g>
            <path
                    id="path6702"
                    d="m 291.69,-437.59 c 0,1.8294 -1.4831,3.3125 -3.3125,3.3125 -1.8294,0 -3.3125,-1.4831 -3.3125,-3.3125 0,-1.8294 1.4831,-3.3125 3.3125,-3.3125 1.8294,0 3.3125,1.4831 3.3125,3.3125 z"
                    transform="matrix(0.90566,0,0,0.90566,9.8303,-35.689)"
                    inkscape:connector-curvature="0"
                    style="fill:url(#linearGradient6722)"/>
            <path
                    id="path6704"
                    d="m 292.96,-437.33 c -0.002,2.6846 -3.2693,3.714 -3.2693,3.714 0,0 2.3487,-1.626 2.3368,-3.705 l 0.93241,-0.009 z"
                    inkscape:connector-curvature="0"
                    style="fill:#888a85;fill-rule:evenodd"/>
            <g
                    id="g6706"
                    transform="matrix(1.1429,0,0,1.1429,-28.571,67)">
                <path
                        id="path6708"
                        d="m 291.69,-437.59 c 0,1.8294 -1.4831,3.3125 -3.3125,3.3125 -1.8294,0 -3.3125,-1.4831 -3.3125,-3.3125 0,-1.8294 1.4831,-3.3125 3.3125,-3.3125 1.8294,0 3.3125,1.4831 3.3125,3.3125 z"
                        transform="matrix(1.0566,0,0,1.0566,-31.198,24.863)"
                        inkscape:connector-curvature="0"
                        style="fill:#c4c5c2"/>
                <path
                        id="path6710"
                        d="m 291.69,-437.59 c 0,1.8294 -1.4831,3.3125 -3.3125,3.3125 -1.8294,0 -3.3125,-1.4831 -3.3125,-3.3125 0,-1.8294 1.4831,-3.3125 3.3125,-3.3125 1.8294,0 3.3125,1.4831 3.3125,3.3125 z"
                        transform="matrix(1.0566,0,0,1.0566,-31.198,24.863)"
                        inkscape:connector-curvature="0"
                        style="fill:url(#linearGradient6724)"/>
            </g>
        </g>
    </g>
    <metadata
            id="metadata47">
        <rdf:RDF>
            <cc:Work>
                <dc:format>image/svg+xml</dc:format>
                <dc:type
                        rdf:resource="http://purl.org/dc/dcmitype/StillImage"/>
                <cc:license
                        rdf:resource="http://creativecommons.org/publicdomain/zero/1.0/"/>
                <dc:publisher>
                    <cc:Agent
                            rdf:about="http://openclipart.org/">
                        <dc:title>Openclipart</dc:title>
                    </cc:Agent>
                </dc:publisher>
                <dc:title>Stylized Basic Cloud</dc:title>
                <dc:date>2013-06-30T13:11:03</dc:date>
                <dc:description>A simple stylized cloud to represent weather, cloud computing or the Internet.
                </dc:description>
                <dc:source>https://openclipart.org/detail/179894/stylized-basic-cloud-by-gr8dan-179894</dc:source>
                <dc:creator>
                    <cc:Agent>
                        <dc:title>GR8DAN</dc:title>
                    </cc:Agent>
                </dc:creator>
                <dc:subject>
                    <rdf:Bag>
                        <rdf:li>basic</rdf:li>
                        <rdf:li>cloud</rdf:li>
                        <rdf:li>grey</rdf:li>
                        <rdf:li>simple</rdf:li>
                        <rdf:li>sky</rdf:li>
                        <rdf:li>stylized</rdf:li>
                        <rdf:li>weather</rdf:li>
                    </rdf:Bag>
                </dc:subject>
            </cc:Work>
            <cc:License
                    rdf:about="http://creativecommons.org/publicdomain/zero/1.0/">
                <cc:permits
                        rdf:resource="http://creativecommons.org/ns#Reproduction"/>
                <cc:permits
                        rdf:resource="http://creativecommons.org/ns#Distribution"/>
                <cc:permits
                        rdf:resource="http://creativecommons.org/ns#DerivativeWorks"/>
            </cc:License>
        </rdf:RDF>
    </metadata>
</svg>
